<?xml version="1.0" encoding="UTF-8"?>
<svg version="1.1" viewBox="0 0 2000 2000" width="36" height="36" xmlns="http://www.w3.org/2000/svg">
<path transform="translate(0)" d="m0 0h2e3v2e3h-2e3z" fill="#191A10"/>
<path transform="translate(1031,647)" d="m0 0 3 1 2 1 4-1 11 2 9 3h6 3l1-2 9 1 2 1v4l2 1h-2v2l7-1 3-4 4 2 1 3-4 2 1 4 4-1 1-2v2l4 2v2h2v2l-4 1v2l6-1v6l-2 1v-3l-7 2v8l-5-2-1-3-4-1h-3l-1-2-5 2 1 7 5 2 8 3 3 3-1 3-16-4-1-7-7-6-5 3v8l10 2-1 3 1 4 2-1-1-2h6v3l-1 2 3 5 10 8 12 6v2h2l3 3 6 3 5 5v2l4 2v2h2l5 5 7 6 6 8 5 5 2 3 1-2h5l5 5 2 5 4 2 2 5-1 6h-2v-10h-4l2 6-2 4-5 2-1 2-3 3-2 4v7l4 3-4 1v5l-7 2-2 4-8 1-1 4-7 6-5 1-2-2-2 2 1 4-2 1-1 4-4 4-10 3h-2l-1 5-5 8-4 1v4h2v2l3-1 2 3-3 2-7 1v-2h-2v5 3l-5-1-1-4 3-8 4-4-1-2-5 2-4 8-2 7-4 2-1 5h-9l-6-3-4 1-5-5-2-1 1-6 4-1 2 2v3l4 1-6-8v-4l2-1-5-3-2-5h-5v-2h-3l-1 3h-2v2l4 1-1 6h-2l-1-4-5-2-3-9h-2l1-3 8-1 2-10 1-4-3 1-2-1v-6l5-5v3h3l1 4 12-8 5-1v-5l2-2 6 1 3-5-7 1-2-1-2 5-3 2-5-1 2-7 4-1 2-2 2 1v-2h2v-3h-2v-2l9-1 3-2v-10l5-1 3-6h7v-5l4 1 3 3 6 2 2 4h4v-3l-3-1-2-5-2-3-4-2v-4l-4-3-4-2-1-5-6-2-3-2h-2l-2-4-5-4-1-2h-3l-2-5-6-1-5-2-2-5-4 5-2 7 2-2 4-3v9l-6 10-4 12-2 1-1-4 3-6-1-6-1-2h-2l2 4-2 9-7 17-2 5-2-2 1-2h-6l-3 7-4 1 3 1-5 5-3 7-1 5-3 5-1 7-3 5-5 14-3 5 3-1 1 2-2 1-2 4-3 4 4-3-1 4-6 7-3 10-3 5v8h-3l-1 6 2 1-2 5-4 11-4 4h-3v2l-8 1-13-6-4 1-1-5 2-3 1-6-3-3v-2l-3 1v-9h-3l-8-8-2-5-7-5-2-5-13-5-3-3v-2l-5-2-13-10-8-7-5-6-2-4-4-3h-2v-2l-4-2-5-2-1-3-3-1-7-10-4-4-1-2h-2l-3-10-1 5-3 2 1 1 2-2 1 3-4 3h-2l-1 6 3 5h-3l-4-5-1-6 4-9 1-5h2v-14l3-5-1-6 6-2 4-2-1-9 2-3h16l1-4-6-1v-5l7-5 5-5 5-1 2-12 7-1h8v-3-2h2l-1-4 4-6 9-4 4-1 4 2v-2l5-4h7l3 2h-4v3h3l1-2v3h3v2l2 1-1 4 7-2v2h2l-1-3 6 2 4-2h3l4 6h9 3l1 2-3 3 1 4-1 2h-3l-2 13-4 3 2 4h-5l-2 5h-2v-3l-10 7-5 6-6 5-3 1-1 2-5 1v2l-5 2-2 4-2 1 1 4 3-2h5l2 2 9-1-1 3-3 3-3 5 3 1 2 4-8 4-4 1-3 5 7-1 2 5-1 3h6l3 6 5 6 8 7 1 5 4 3v2h-3l3 7 4 6v2l4 2 6 4v2l3 1h2l1-2-2-1 1-2h-2l1-7 5-5v-6l2-1 2-6 1-4v-2l5-4h2l1-11 3-7 4-13 3-5 4-13 1-4v-3l3-2 2-7 3-7 6-18 1-6v-6l2-1 1-6-3-1-1 4-5-5-3-2v6h-2l-1 4h1v5l-5 4-1-5-7 1 1 7 4 1-2 2h-4l-1 2-9-1v-6l4-2-3-1h2l1-3h5l1-5 5-3 3-3v-2h-7l-2-2 2-6h2l1-2 6-2 14-7 1-5h-2l1-6 6 2v-4h-5v-3l3-3 6-2v-3l2 1 3 2v-8l5-2 3 4 4-2z" fill="#191A16"/>
<path transform="translate(942,1202)" d="m0 0 5 1 1 5 1 3 8 1v-2l9 1 5 1 2-2 5 4 1 4-1 2v4l4 1 6 5v2h2v2l5 1 2 1 11 1 6 2 8-4 10-3 4-5 4 1 1 5h10l11 2h10l6 1h9v-2h3v-2h-4l-1-4 4-2h6l4 3 7 2 4 2-2 2 8 2h7l16-4 4-2 9 1 7 3 4 3 10 2 4 4 1 6-2 3h2l5 9 4 9v3l2 7 4 1v4l-9 2-2-1v8l5 5-1-3-3-3 1-3 3 1 6-3h3l1-5 3-1 7 3 1 4-2 4v7l-4 2-7 2h-3v-2h-5l1 7-5 6-7 3-3 4-2 5-4 1-1-5h3l1-3-6 1-6-1-10 3-10 1-1-5h-4v2h-2v2l-5 1-4 1-9-5v-8l-3-1-3-17v-3l-4-2-3-1-1 4 1 5-2 6h3l1-2v7l-3 1-1 2v8l2 1-6 2-5 1 7-1 2-1h7v6l1 6-3 1-1-1h-6v-2h-4l1-4-4 1-3 3v-2h-6v2l-4 1-3-1-3 1-4-5-2-1v-2l-7-2-1 3h-2v-2l-5 2-6 5-16 1-8 5-5-2 1 3h-2l-1-5 2-3-4-3-5-1v2l-9 2-2-2-18 4-6-1v-3h-3l-1 3-5 3-10-2-7 4-4-2-8 2-2-2-5 1-3 3-11-1v2l-10 4h-2l-1 5h2l-2 6-7 1-7-3h-2l-1 2-7-1-1-7 1-5-5-10-1-5-5-2-3-1v2l-6 1-3-3-5 1h-9l-3 2v2l4 2v3l3 1 5-1v5l4 2v1h-7l-6-3-4 1-6-4-10-5-4-8 1-5 2 1 3 7 8 5 1-1-3-7-8-2v-4h8l-4-5 1-5 4-10-5 2-2-5h-4l2-6h-2l-5-13-2-5 1-7v-3l2-4v-5l-1-2 4-7h2l1 5 12-5 8-6 2-6 6-2 1-4-4-1-1-6 6-2 3-6 4 2 1 4h10l5-1 2 1v5l-4 3-7 1-7-2 1 3 4 4 3 2-1 2 6 1 8-1 7 1-6 4h7l15-3 2-1h9l-1-5 2-2 8 3-1 2h10l4-2h3l1-7 6-5 4-5-4-2-1-5h3z" fill="#191A16"/>
<path transform="translate(1120,987)" d="m0 0h2v2h5v2l4 2 1 7 4-1h4l3 4v8l1 7 5-3 5-4h2l1-6 3-7 3-2 1-3 4-2 3 3 2 6-3 1v14l-2 7-3 2h-3l1 6-2 4h-2l-3 3h-5l-1 2h-2l-1-9 1-5-2-2h-3l2 7 1 13 2 8-2 1-2 4 1 3 2-3h2l1 10v14l6 7v3h2l2-5 3-1-5-1-1-4 2-11 4-3h3l1-5 1-2h2v-6h2v-6l2-2v-9l4-8h2v-5l2-4 1-3 6-3 9-1h5v3h17l5 1v2l2 1-4 3-2-1-1 3h-2l-1 7-22 65-15 43-2 5h-48l-4-10-2-9h-3l-1 2-1-7 1-2-3-1-1-1v-8l-3 1 1-4-6-4-2-4v-4h2l-2-6-3-6-4 8-2 11-2 1v-3h-6l-2-2-2 1-1 6-5 7 5 7-1 3-1-1-1 6-5-5-3 2 4 4-1 11-5 5-2 3v-2h-9v5l-2 1h-15l-1 2-5 1-1 4-4 1-11 2h-11v2l1 3-10 1-4 3-3-3h2v-6l7 2-1-3-7-3-1-3-13-6-1-2-4-2-6-5-2-1-2-4-4-2-2-4 1 12-3-2v-6h-2v-3l-2-1-1-7-1-4 4 2-1-4-2-2 1-3h2l-3-14-1-10v-9l2-14 4-11 4-8 7-9 10-9 15-8h2v-2l7-1 10-4 3-1h10l7 5 7 1-2-5 4 1v2h3l-1-2 5 1 6 3 2 5 4 3v-3-3h-2v-2l-6-2-1-4 7-2h8l7 2 5 3 1 7h5l1-1h36l1-3 1 2 5-1 5 3 4 6v6l2 6h1l-1-7-4-14-6-3-1-3-1-1v-2l-2-1v-2l-4 3-3-1 1-2-3-1v-2l-3-1v-2h-6l4-5 5 3 2-1-1-5z" fill="#172B1C"/>
<path transform="translate(789,965)" d="m0 0h50l27 1 17 3 14 5 11 6 10 8 8 9 8 14 5 16 2 11v31l-4 20-8 18-8 10-7 7-10 7-16 7-17 4-11 1-70 1-2-1v-177z" fill="#fff"/>
<path transform="translate(1006,1013)" d="m0 0h23l16 4 11 6 10 9 7 10 5 11 4 17 1 17-95 1 7 14 5 6 10 6 7 2h14l16-4 15-7 13 23-1 5-12 6-15 5-14 2h-24l-16-4-14-7-10-9-6-7-7-14-3-12-1-10v-9l2-14 4-11 4-8 7-9 10-9 14-7z" fill="#fff"/>
<path transform="translate(823,997)" d="m0 0h36l14 3 14 7 7 6 7 11 4 10 2 13v11l-2 14-3 10-6 10-7 8-10 6-11 4-13 2h-32l-1-1v-113z" fill="#182319"/>
<path transform="translate(1119,1017)" d="m0 0 4 1 3 8 9 30 16 53 2 7 3 1 1-9 22-73 5-16 2-2h34l-1 6-24 72-15 43-2 5h-48l-4-10-24-71-14-40v-4z" fill="#fff"/>
<path transform="translate(907,1246)" d="m0 0 11 1 12 6 5 4 4 6 3 11v9l-4 11-6 8-8 5-7 2h-17l-1 20-4 2h-11l-1-1-1-26v-51l9-4z" fill="#00F863"/>
<path transform="translate(821,957)" d="m0 0h14l12 2 10 4v2h5v1h-73l-1 177 72-1 16-2 15-4 9-4 2 1-2 4h-3l-1 2-4 1-4 2-8 1-2 2-2 5-4 2 13-3-1 2h-2v2l-6 2-12 1-4 1-5-1 2-3h5v-2l-22 2-31-1-6-1h-7l5 3 13 1-4 2v2l7 3-3 2-9 3-16-1h-8l-3-4 2-4 7-1-1-3 2-3-3-2-2-3-5-5-1-11-1-9 3-2v-114l1-28 2-5h3l-1-6 3-3 4 1 1-2 14-4z" fill="#172F1E"/>
<path transform="translate(1120,987)" d="m0 0h2v2h5v2l4 2 1 7 4-1h4l3 4v8l1 7 5-3 5-4h2l1-6 3-7 3-2 1-3 4-2 3 3 2 6-3 1v14l-2 7-3 2h-3l1 6-2 4h-2l-3 3h-5l-1 2h-2l-1-9 1-5-2-2h-3l2 7 1 13 2 8-2 1-2 4 1 3 2-3h2l1 10v14l6 7v3h2l2-5 3-1-5-1-1-4 2-11 4-3h3l1-5 1-2h2v-6h2v-6l2-2v-9l4-8h2v-5l2-4 1-3 6-3 9-1h5v3h17l5 1v2l2 1-4 3-2-1-1 3-1-2v-3h-33l-4 10-21 70-5 19-4-1-16-53-9-30-4-14-2-3 3-3v2l5-1 5 3 4 6v6l2 6h1l-1-7-4-14-6-3-1-3-1-1v-2l-2-1v-2l-4 3-3-1 1-2-3-1v-2l-3-1v-2h-6l4-5 5 3 2-1-1-5z" fill="#18241A"/>
<path transform="translate(1137,1247)" d="m0 0h16l7 3 8 7 6 11 2 8-1 6h-43l3 7 6 4 7 1 12-3 6-1 5 8v5l-11 5-11 2-12-1-12-6-8-9-4-13v-8l4-11 7-8 7-5z" fill="#00F863"/>
<path transform="translate(1037,1246)" d="m0 0 10 1 7 3 5 3 7 10 3 11v7l-1 1-41 1 2 6 6 4 7 1 12-3 6-1 5 8-1 5-10 5-9 2h-9l-10-3-10-7-5-6-3-7v-19l7-11 9-7 7-3z" fill="#00F863"/>
<path transform="translate(948,1224)" d="m0 0h14l2 1v22h19l9 3 5 4 5 10 1 25v16l-1 3h-16l-1-1-1-43-4-1h-15l-1 43-1 2h-14l-2-3v-80z" fill="#00F863"/>
<path transform="translate(1043,663)" d="m0 0h6l1 4-6 17-10 26-13 34-8 20-11 29-13 34-12 31-14 36-5 8-2 2-5-1-2-4 58-150 19-49 11-28 4-8z" fill="#00F863"/>
<path transform="translate(1056,707)" d="m0 0h6l16 12 14 11 13 10 10 8 17 13 7 5v2l4 2 14 11-1 5-8 8-11 8h-2v2l-16 12-16 13-13 10-12 9-7 6-8 6-6 1-2-3v-5l11-10 16-12 14-11 16-13 9-7 17-13h3l-1-5-10-7-13-11-18-14-11-9-14-11-17-13-2-2v-7z" fill="#00F863"/>
<path transform="translate(940,707)" d="m0 0h5l1 5-2 5-11 8-11 9-28 22-13 10-20 16v5l5 2 17 14 28 22 9 7 7 5v2l4 2 13 10 3 5-3 5-7-1-10-8-11-9-10-8-11-8v-2l-4-2-16-12v-2l-5-2-12-9-9-7v-2l-4-2-2-4 5-5 12-10 16-12 16-13 26-20 14-11z" fill="#00F863"/>
<path transform="translate(842,1247)" d="m0 0h18l10 3 3 3-1 8-2 2-7-1-5-1h-13l-1 5 19 7 9 6 4 7v9l-3 6-6 5-8 3h-16l-16-3-3-2 1-6 4-6 15 3h12l3-1-1-5-9-4-12-4-8-6-3-7 1-9 4-6 8-5z" fill="#00F863"/>
<path transform="translate(1221,1022)" d="m0 0h3l2 8-3 9-3 11-1 5 1 4h-3l-2 3-8 24-5 13 2-2 3-7h3l-4 12-4 8-1 5-5 9-2 4h-2l-2 7-1-2h-3l-3 4-1 4-1 2 3 1-1 4-13 4-2-1-1-1h-30l-2-1v-2h-3l-1 2h2v2l-4-1-2-7-1 2-3-3-1-5-1-7 2-6 2 3 5 15h48l12-36 14-40 12-36 2-7z" fill="#182A1C"/>
<path transform="translate(1168,807)" d="m0 0h2l1 6h-2v2l7-1v3l-3 2-2 7 1 5v1h-6l-1-2h-2v4l-2 1-1 5 3 1 1 6 2 1-9 5 2 1-1 5-1 2h-3v2h-6l-2-1-2 4h-2l-1 2-7-3-1-5 5-6 1-9h-3l-2 7-3-1-1 2-2-2-4 2v3h-5l-4 3-1-5 3-4 1-3h2l2-4 6-2v-2h2l1-4 10-3v-2l4-2 2-7h6v-2l4-2 4-4 5-1z" fill="#191A16"/>
<path transform="translate(849 1e3)" d="m0 0h23l4 2-1 3 7 5 3 1 5 6 6 10 2 2v8h-2v4l3-1 3 3v3h2v2h-2v6l-1 2 2 1-1 11 2 1-2 5h-2l-1 5-3 3-1 3-4-2-2 1 3-11 3-9 1-18-1-2-2 8-1 6-1 14-3 7-2-2-3 4 1-9 2-4-5 1 1-10-1-1 1-12h3l1 2-1-12h-2v-2l-3 3h2v2l-4 1-5-4v-4l8-1v-3l-4-2-2-4-5-3v-2l-4-2v-2h6l5 6v2l3-1 4 6 3 1 1 2v-3l-3-1-4-6-8-7-2-2-3-2h-28l2-2 7-1-3-2v-2z" fill="#191A10"/>
<path transform="translate(1098,1248)" d="m0 0h9l4 2v13l-1 1-17 1-1 1-1 41-1 1h-14l-2-1v-55l1-1z" fill="#00F863"/>
<path transform="translate(2e3 6)" d="m0 0h2v15h-5l-1 3-4-1v-2l-5-1-1 4 1 4 1 7-3 3v13l-4 2-1 3-4 2-2-1-1-8-2-5-5-7-3-1-2-3-6-1-2-6-5-2-7 2h-5l1-2h2l-1-3 2-3h3l1-3v-2l-1-2 6-1v2h2l4 6h2l3-2 10 1-2-4h-5l-5 3v-3l10-4 13 1 7 2v2l8 1 3-1-2-3z" fill="#191A16"/>
<path transform="translate(1015,1040)" d="m0 0 11 1 9 4 5 4 4 6 4 9-1 3h-51l-7-1 1-7 6-9 7-6 7-3z" fill="#17321F"/>
<path transform="translate(956,1105)" d="m0 0 2 2 6 12 9 10 9 7 11 5 16 4h24l14-2 15-5 12-6-1-6v-3l4 2-1 11-5 5-2 3v-2h-9v5l-2 1h-15l-1 2-5 1-1 4-4 1-11 2h-11v2l1 3-10 1-4 3-3-3h2v-6l7 2-1-3-7-3-1-3-13-6-1-2-4-2-6-5-2-1-2-4-4-2-2-4 1 12-3-2v-6h-2v-3l-2-1-1-7-1-4 4 2-1-4-2-2 1-3h2z" fill="#16331F"/>
<path transform="translate(739,1021)" d="m0 0h8l2 2v4h2l-1 4 7-3v2l5-1 2-6 3 1 1 11v8l-2 7v8h-2l1 15-1 4v6l5 5-2 4-6 1-3-2-2 2-2 4-1-1v-12l2-7h2l-1-3 1-3-3-1v-16l-1-1v-6l2-3-1-4-5 4-4-2v-8l1-5-6-2-3-2z" fill="#191A16"/>
<path transform="translate(1091,790)" d="m0 0 10 1-3 3h6l-2 5-2 4-5 1-2 4h-2v2l-3 1-4 5 2 2-4 3h-5l-3 2 2 2-8 7-6 2h-2v2l-5 5-5 4-5 5 1-5h-2l-2 3-1-6 9-10 5-5 9-6 1-2h2v-3l7-5 3-3 5 1v-2h2l1-4h2l2-4 4-2-7 1-2-2 3-3-1-2z" fill="#191A10"/>
<path transform="translate(902,1262)" d="m0 0h12l6 3 3 3 2 7-1 11-5 6-5 2h-12l-3-2v-27z" fill="#191A16"/>
<path transform="translate(860,998)" d="m0 0 10 1 14 6 10 8 7 11 4 10 2 13v11l-2 14-1-2h-2v-11l-1-3 1-6h2v-2h-2l-3-5h-3v-4h2l-1-8-3-3-6-11-4-4h-3v-2l-5-2-2-3v-2l-3-1h-7l-4-2z" fill="#163721"/>
<path transform="translate(882,1084)" d="m0 0v3 3h2l-1 5v7l-4 4h-9l-1 2-6 1-4-1h-12l-3-2 1-1-2-1-1 2v-3l2-1v-4l5-2 1 2 10-1 11-5 4-1z" fill="#181A10"/>
<path transform="translate(1123,1124)" d="m0 0 2 3 5 15h50l1-4 2 2-2 3 3 1-1 4-13 4-2-1-1-1h-30l-2-1v-2h-3l-1 2h2v2l-4-1-2-7-1 2-3-3-1-5-1-7z" fill="#163620"/>
<path transform="translate(968,1015)" d="m0 0h3l-2 4-4 5-5 2-2 8 3-1 5-5 6-5 4-1 3 2-12 11-6 9-4 9-4-1v-9l-2-3 1-4-1-4v-12l3-2 7-1 5 1v-2z" fill="#18271B"/>
<path transform="translate(821,957)" d="m0 0h14l12 2 10 4v2h5v1h-23l-46-1-2-1 1-2 14-4z" fill="#18261B"/>
<path transform="translate(1193,1011)" d="m0 0h10v3h17l5 1v2l2 1-4 3-2-1-1 3-1-2v-3h-33l-4 10-13 43-4-5 2-6 1-2h2v-6h2v-6l2-2v-9l4-8h2v-5l2-4 1-3 6-3z" fill="#153F23"/>
<path transform="translate(814,1155)" d="m0 0h37l2 2-1 1 2 2-3 2-1 8-1 1h-5l-2-7-13 1-4 1-6-2v-1l-6-2-7-1 4-1v-2h-10v-1z" fill="#191A16"/>
<path transform="translate(941,1039)" d="m0 0h1v10l3 1 1 5v13l-3 5 2 1 1-2h5l-2-10 3-6 4-2-3 20v9l2 15 1 6-4-1v-7l-4-2v-6l2-1-4-8-3-1 1 4-6 1 2-14z" fill="#163A21"/>
<path transform="translate(913,982)" d="m0 0 6 1 2 4 3 1 1 3 3 1h3l1 3 3 1 7 13v8l-1 3h2v2h2l1 3-2 4v2l-5 1-4-15-5-12-9-13-9-8z" fill="#16341F"/>
<path transform="translate(936,1089)" d="m0 0 2 3 2-1 1 6-3 7v3h-2l1 3-3 1-1 5-10 5-3 5-5 1-3 6-7 1-3-3 9-6 10-9 8-11z" fill="#16331F"/>
<path transform="translate(1016,1007)" d="m0 0h10l7 5 7 1-2-5 4 1v2h3l-1-2 5 1 6 3 2 8-1 2-5-2-12-5-10-2h-23l-12 2 2-1v-2l7-1 10-4zm41 11 2 2h-2z" fill="#163821"/>
<path transform="translate(753,1099)" d="m0 0h2l2 9-3 10h-2l-1 4 2 2 3 1 1 6-1 2h-2l-3 6-1 3-3-1-2-4-5-1-2 4-1-8 3-1v2l4-1 3-7 1-4-1-5 1-7 4-4z" fill="#191A16"/>
<path transform="translate(830,1020)" d="m0 0 3 1 2 11 2 36v14l-4 10-2-2v-6l-1-2v-18l2-1-1-5 1-6v-3l1-6h-1l-1-7 1-5-2-7z" fill="#191A10"/>
<path transform="translate(1172,1019)" d="m0 0 2 1-1 5h-2l1 8-3 9-3 12-1 9-4 5h-2v-18l-1-2 1-4h-2v-2l5-5 3 6 1-11 3-3h1v-6z" fill="#191A16"/>
<path transform="translate(1036,1260)" d="m0 0 8 1 6 4 2 4v3h-25l-2-2 5-7z" fill="#191A16"/>
<path transform="translate(762,1133)" d="m0 0 3 4 1 6-2 7-1 7-3 1-2 6-2 2-3-6-2 2-6-10-1-5 2-1v4l5 1 2 1 2-3 7-2v-7l-1-3-2-1h2z" fill="#191A16"/>
<path transform="translate(1142,1260)" d="m0 0h6l6 4 3 3 1 4-1 1h-24l-1-3 6-7z" fill="#191A16"/>
<path transform="translate(1103,1089)" d="m0 0 2 3v7l-1 4 3 1 2 10 3 8 2 6 4 7v2l-6-2v-5h-2l-2-3-1-10-3 1v-3l-3 1v3h-5l-3-2v-3l8-3 1-20z" fill="#1A1A17"/>
<path transform="translate(933,1127)" d="m0 0 5 1 2-1v2h2l1 4 4 1 4 5 4 3v2h-5l-9-6-3-1 2 4-4-2-6 1-1 2h-4l1-5h2l2-5z" fill="#1A1A17"/>
<path transform="translate(963,722)" d="m0 0 4 1-1 6-5 4-1 2h3v2h4v2l-12 2 4 1 1 2h-3v3h-5l-1 4-1-5 1-4h-4l1-3 5 1 2-4-2-1v-2l-3 1v-4l4-3h2v-2z" fill="#191A16"/>
<path transform="translate(752,998)" d="m0 0 4 1 1 6 4 1 4-1 1-2 1 4h2v3l-4 1-3 2-5 1-3 2h-5l-1 2-4-12 3-1 1 2z" fill="#191A16"/>
<path transform="translate(966,1153)" d="m0 0 10 2 2 3-1 1h-8l-2-1-1 3 4 1 5-1 3 3-5 3-11 2-6-1v-3l2-4 6-7z" fill="#1A1A17"/>
<path transform="translate(841,1076)" d="m0 0h2l3 5 5 1 7 1-4 4 8 1-2 2-9 1v2l-7 2-6-2 2-5v-3z" fill="#191A10"/>
<path transform="translate(942,1099)" d="m0 0 4 1 2 2 1 6v12l-7 1-4-4 1-10z" fill="#1A1A17"/>
<path transform="translate(1184,1017)" d="m0 0 2 1-4 10-13 43-4-5 2-6 1-2h2v-6h2v-6l2-2v-9l4-8h2v-5z" fill="#134F29"/>
<path transform="translate(1917,11)" d="m0 0 4 1 1 1 2-2 7 1 2 4v6l-5 1-7-1h-7l-1-2h3l1-4-1-4z" fill="#191A16"/>
<path transform="translate(1201,1120)" d="m0 0h2l1 3-1 12-2 5-1 7h-2v3l-3 1 1-11-3-3 2-7 5-8z" fill="#191A16"/>
<path transform="translate(1008,1216)" d="m0 0 10 1 3 2-1 3-7 1-3 1-2 5-4 1-3-4v-2h-5l-1-3 12 1v-5z" fill="#1A1A17"/>
<path transform="translate(1166,1064)" d="m0 0m-3 1 3 1 2 3-1 9-2 7-1-2-5 1-2-2 2-14z" fill="#182A1C"/>
<path transform="translate(945,1152)" d="m0 0h4l2 4v3l-5 4-2 4-8 1-2-5h-2l1-4 9 1 1-6z" fill="#191A16"/>
<path transform="translate(1016,1007)" d="m0 0h10l6 4v2l-26 1-12 2 2-1v-2l7-1 10-4z" fill="#144927"/>
<path transform="translate(895,768)" d="m0 0 6 4 5 2-1 4-3 5-6-2-1-4h-2v-2l-5-1 1-5 6 1z" fill="#191A10"/>
<path transform="translate(1197,994)" d="m0 0 2 2 1 4-5 1-8-1-2 4-6 3h-5v-5l2-3 9-1v-2l6 1z" fill="#1A1A17"/>
<path transform="translate(889,963)" d="m0 0 6 1v3h-3l1 2 2-1h7v5l3 2v2h4v2l3 1-1 3-14-8-10-4v-3l-1-3z" fill="#163520"/>
<path transform="translate(1017,638)" d="m0 0 4 1 2 4 2 2-4 2h-7l-7 2-3-2 1-4 7-3z" fill="#1A1A17"/>
<path transform="translate(1153,1051)" d="m0 0 2 4 2 9v15h-4l-2-4v-19z" fill="#1A1A17"/>
<path transform="translate(861,747)" d="m0 0h4v2l2 1-1 3-6 3-5 5-3 4-4-1h2l1-3h-5l-1-3 6-3 3-1 1-2h2l3-3z" fill="#191A10"/>
<path transform="translate(941,1039)" d="m0 0h1v10l3 1 1 5v13l-5 7h-1z" fill="#13552B"/>
<path transform="translate(929,696)" d="m0 0v3l2 4-3 1-4 4-10 3 2-5-1-2h2v-2h2l1-3z" fill="#191A10"/>
<path transform="translate(1102,1161)" d="m0 0h5l7 8-2 4-7-1-5-5 1-5z" fill="#1A1A17"/>
<path transform="translate(803,780)" d="m0 0 6 1 6 4-4 2 1 6-3 3-5-5-3-5 1-4z" fill="#191A16"/>
<path transform="translate(940,802)" d="m0 0 6 2 1 3v10l-1 2-4-1-5-9 2-5z" fill="#1A1A17"/>
<path transform="translate(1e3 840)" d="m0 0 1 3-7 21-3 7-3 2 1-10 3-4 3-9z" fill="#1A1A17"/>
<path transform="translate(1123,1172)" d="m0 0h7l11 4v2l-9 2-4-2-8-1z" fill="#1A1A17"/>
<path transform="translate(919,1213)" d="m0 0 7 2-2 6-4 3h-6l-1-4z" fill="#1A1A17"/>
<path transform="translate(982,942)" d="m0 0h1v5l-5 4h-4l-2 5-3 1-3 3-3-1 1-4 7-3 2-5 9-3z" fill="#1A1A17"/>
<path transform="translate(749,976)" d="m0 0 3 3v2l3-1 2 4-2 2-1 4-3 2-3-2 3-5-5-2v-4z" fill="#1A1A17"/>
<path transform="translate(942,738)" d="m0 0 4 1-1 4-12 8h-2l-1 2v-4l-2-3 3-2h5l5-4z" fill="#191A16"/>
<path transform="translate(959,748)" d="m0 0 5 1 3 3-1 5-8 1-2-3v-5z" fill="#1A1A17"/>
<path transform="translate(1123,1124)" d="m0 0 2 3 5 16h-3l-1 2-3-3-1-5-1-7z" fill="#154224"/>
<path transform="translate(1173,1331)" d="m0 0 1 2h2l-1 6-5 1h-10l-1 2h-3l1-4 7-1 6-5 3 1z" fill="#1A1A17"/>
<path transform="translate(819,1221)" d="m0 0h4l-1 4-4 1-1 7-6 2-3-1 1-4 3-1 1-3 4-1z" fill="#1A1A17"/>
<path transform="translate(914,895)" d="m0 0 13 1-3 4-7 1-4 6-1-2-7-1 4-3 4 2z" fill="#1A1A17"/>
<path transform="translate(912,966)" d="m0 0h2v2h3v2l4 1 5 5 1 4-2 1-4-4v-2l-4-1v-2l-6-1-2-1v-2z" fill="#1A1A17"/>
<path transform="translate(1045,631)" d="m0 0 4 2 1 4-3 3h-8l-1-6z" fill="#1A1A17"/>
<path transform="translate(1991,31)" d="m0 0h2l2 11v3l-4 1-2-1-2-10z" fill="#1A1A17"/>
<path transform="translate(931,1337)" d="m0 0h2v2l3 1-1 4-3 2h-7l-2-5h3v-2l5 1z" fill="#1A1A17"/>
<path transform="translate(849,1010)" d="m0 0 5 1 2 1 7-1h2v3l-4-1-1 3-5 2-2-1v-2l-9-2 2-2z" fill="#191A10"/>
<path transform="translate(1173,1051)" d="m0 0 1 4-5 16-4-5 2-6 1-2h2v-6z" fill="#154224"/>
<path transform="translate(893,958)" d="m0 0h5l5 4 4 1 2 5-6 1-1-2 1-2-7-2-4-2z" fill="#1A1A17"/>
<path transform="translate(1108,1198)" d="m0 0h1v9l-9 2-3-4 6-3 2-3z" fill="#1A1A17"/>
<path transform="translate(837,1093)" d="m0 0 1 2v8h2l1 5-9 2-2-1 2-11 2 4 1-1 1-7z" fill="#191A10"/>
<path transform="translate(1016,965)" d="m0 0h8l2 4-5 3-7-1v-5z" fill="#1A1A17"/>
<path transform="translate(773,949)" d="m0 0 4 1-1 3 1 5 2 1-4 1-6-2-1-5z" fill="#191A16"/>
<path transform="translate(830,944)" d="m0 0 7 2-4 2-12 2-5 1-4-2 6-3h2v2l3-2z" fill="#191A16"/>
<path transform="translate(844,822)" d="m0 0 7 4-1 5-7-1-4-2 1-4z" fill="#1A1A17"/>
<path transform="translate(1077,795)" d="m0 0 2 2v6l-7 6-3-1 3-9 5-2z" fill="#191A10"/>
<path transform="translate(1029,627)" d="m0 0 3 3-2 6-7 4-2-4 4-6z" fill="#1A1A17"/>
<path transform="translate(860,1331)" d="m0 0 4 4-1 3-6-1-6 1-2-5 4-1h4z" fill="#1A1A17"/>
<path transform="translate(917,1150)" d="m0 0 4 2 1 4v7l-3 2-2-3 1-7-7 1 5-5z" fill="#191A16"/>
<path transform="translate(1114,1103)" d="m0 0h3l6 18v3h-2l-1 2-1-7 1-2-3-1-1-1v-8l-3 1z" fill="#116430"/>
<path transform="translate(997,1207)" d="m0 0 4 2-2 4-2 5-5-2-1-4 3-1v-2z" fill="#1A1A17"/>
<path transform="translate(912,1124)" d="m0 0 3 1-2 6-1 2-7 1-3-3 9-6z" fill="#153F23"/>
<path transform="translate(762,1016)" d="m0 0 4 2-2 5-5 2-6-2v-4l3-1 3 2 2-1z" fill="#191A16"/>
<path transform="translate(956,940)" d="m0 0 4 1-1 5-7 1 1 3-4 2-1-4 3-3z" fill="#1A1A17"/>
<path transform="translate(959,764)" d="m0 0 8 1 2 5-2 2-5-1-4-2z" fill="#191A16"/>
<path transform="translate(1069,655)" d="m0 0 2 4v15h-3v-3-4h-3l2-9z" fill="#191A10"/>
<path transform="translate(799,1240)" d="m0 0h8l1 5-4 3-6-1z" fill="#1A1A17"/>
<path transform="translate(763,1097)" d="m0 0 1 2h2v5h-2l1 8-1 2h-2l-1-2v-7l-1-2 2-5z" fill="#1A1A17"/>
<path transform="translate(954,1054)" d="m0 0h2l-3 20-3-4-1-9 3-5z" fill="#13532A"/>
<path transform="translate(989,873)" d="m0 0 1 3 2-1-1 7-5 5-3 6-3 2 2-6 3-5 3-10z" fill="#191A16"/>
<path transform="translate(872,1202)" d="m0 0 6 1-1 3-4 1-15-1v-2l7-1z" fill="#1A1A17"/>
<path transform="translate(970,1311)" d="m0 0h9v3l6 2-1 3-4 1-3-1v-3l-3-1v-2l-4-1z" fill="#191A10"/>
<path transform="translate(900,1132)" d="m0 0 2 1-2 4h-3l-1 2-4 1-3 2-4-2v-2z" fill="#154124"/>
<path transform="translate(918,1195)" d="m0 0 2 4-2 4-12-1 2-3 9-3z" fill="#1A1A17"/>
<path transform="translate(1009,1096)" d="m0 0 6 2v1l-5 1 1 8-3 3-4-1 2-6 1-6h2z" fill="#191A10"/>
<path transform="translate(1218,1062)" d="m0 0 1 4-8 20-2-4 2-1v-3h2v-8l3-6z" fill="#191A16"/>
<path transform="translate(1139,730)" d="m0 0 5 3v2l4 1 1 4 2 2-5-1-3-3-5-4-2-3z" fill="#1A1A17"/>
<path transform="translate(1162,1008)" d="m0 0 5 2 1 4-2 4h-2l1 3h-2l-1-7-3-2v-2z" fill="#191A10"/>
<path transform="translate(860,998)" d="m0 0 10 1 5 2-1 3-3-1h-7l-4-2z" fill="#12562B"/>
<path transform="translate(914,912)" d="m0 0h8l4 3-1 4-3 1-4-4-4-2z" fill="#1A1A17"/>
<path transform="translate(799,1253)" d="m0 0 4 2 3 3-1 5-6-3-1-6z" fill="#1A1A17"/>
<path transform="translate(963,1008)" d="m0 0h3v2h-2v2l-10 2-3 1 1-6h7z" fill="#1A1A17"/>
<path transform="translate(870,965)" d="m0 0h11l5 3v2l-12-2-8-1z" fill="#116430"/>
<path transform="translate(1e3 953)" d="m0 0h7l-2 4-5 2h-5l2-4z" fill="#1A1A17"/>
<path transform="translate(852,944)" d="m0 0 5 2-3 4h-5l1-2h-7l-2-3z" fill="#1A1A17"/>
<path transform="translate(869,716)" d="m0 0 6 2v3l-2 1-3-1v3l-4 1v-8z" fill="#191A10"/>
<path transform="translate(855,1261)" d="m0 0h8l7 3-4 2-10-1-3-3z" fill="#191A11"/>
<path transform="translate(1086,1069)" d="m0 0 3 1 2 10 1 8-2 1-3-13-2-2z" fill="#191A10"/>
<path transform="translate(860,838)" d="m0 0h5l3 4-5 2-1 1h-5l1-5h2z" fill="#1A1A17"/>
<path transform="translate(869,1322)" d="m0 0 4 2 6 2 4 4v2h-5l-3-3v-2l-5-1z" fill="#191A10"/>
<path transform="translate(779,1280)" d="m0 0 2 1v2h-3l3 3v4h-4l-3-4 2-5z" fill="#1A1A17"/>
<path transform="translate(804,1268)" d="m0 0 4 2-1 6-6-1-1-4z" fill="#1A1A17"/>
<path transform="translate(860 1e3)" d="m0 0h7l6 2v2h5l2 4-5-2-9-3h-13v-1h7z" fill="#191A16"/>
<path transform="translate(969,703)" d="m0 0 4 1 1 1v6h-5l-1-7z" fill="#1A1A17"/>
<path transform="translate(977,1150)" d="m0 0 5 1 9 4 2 3-8-1-4-4-4-2z" fill="#1A1A17"/>
<path transform="translate(978,730)" d="m0 0 5 1 1 4-2 2-5-1-1-3z" fill="#1A1A17"/>
<path transform="translate(1907,10)" d="m0 0 3 1v7l-1 1h-6l3-3v-2l-4-1 4-2z" fill="#1A1A17"/>
<path transform="translate(911,1271)" d="m0 0 1 3-1 5-4 2v-3h-2l1-4 2-2z" fill="#191A10"/>
<path transform="translate(858,1023)" d="m0 0 7 2 4 3v2l-9-1-2-1z" fill="#191A10"/>
<path transform="translate(2e3 27)" d="m0 0 2 1v9l-3 1 1-4-2-1-3-3 1-2z" fill="#1A1A17"/>
<path transform="translate(878,1311)" d="m0 0 2 3v7l-2 3-2-2v-8z" fill="#191A10"/>
<path transform="translate(798,1220)" d="m0 0 4 2-1 5-7-1 1-4h3z" fill="#1A1A17"/>
<path transform="translate(1094,1143)" d="m0 0 11 3v4h-3v-2l-6 1-2-3z" fill="#1A1A17"/>
<path transform="translate(956,1105)" d="m0 0 2 2 4 10-5-2-4-5 1-3h2z" fill="#144826"/>
<path transform="translate(932,922)" d="m0 0 4 2 1 3-9 1 1-5z" fill="#1A1A17"/>
<path transform="translate(1177,817)" d="m0 0 4 2 1 4-1 2-5-1-1-6z" fill="#191A16"/>
<path transform="translate(1080,1048)" d="m0 0 4 1 1 6v5l-2 1-2-2v-6h-1z" fill="#191A10"/>
<path transform="translate(1159,985)" d="m0 0 4 2-2 6-4-1-1-4z" fill="#1A1A17"/>
<path transform="translate(1073,888)" d="m0 0h9v4h-9z" fill="#1A1A17"/>
<path transform="translate(1043,818)" d="m0 0 6 1-3 6-6 1 1-4z" fill="#1A1A17"/>
<path transform="translate(1044,793)" d="m0 0h4v6l-7 1 2-6z" fill="#1A1A17"/>
<path transform="translate(1037,1161)" d="m0 0 6 1-1 3h-8l-5-1v-2z" fill="#1A1A17"/>
<path transform="translate(1014,1090)" d="m0 0 16 1 1 2h-16l-2-2z" fill="#191A10"/>
<path transform="translate(858,929)" d="m0 0 3 2v4h-2v2l-5-1v-3z" fill="#1A1A17"/>
<path transform="translate(732,1165)" d="m0 0h3v2h-2l1 3 4 3h-6l-3-2 1-5z" fill="#1A1A17"/>
<path transform="translate(1e3 1318)" d="m0 0h8l-2 4-4 1-6-2z" fill="#191A10"/>
<path transform="translate(1240,1049)" d="m0 0 2 1-1 5-5 2v-6z" fill="#1A1A17"/>
<path transform="translate(1035,1321)" d="m0 0 9 1v2l-3 3h-2v-2l-4-1z" fill="#191A10"/>
<path transform="translate(1038,1213)" d="m0 0h3l-1 6h-5l-1-4z" fill="#1A1A17"/>
<path transform="translate(883,1149)" d="m0 0 2 1-3 1v2l-6 2-4-2 7-3z" fill="#191A16"/>
<path transform="translate(846,1018)" d="m0 0 5 1-1 4h-7l-1-4z" fill="#191A10"/>
<path transform="translate(1026,861)" d="m0 0 3 2-1 5-4 1-1-4 1-2h2z" fill="#1A1A17"/>
<path transform="translate(736,1166)" d="m0 0h2v2l6-1 2 2h-3v2l2 1-3 1-4-2v-2h-3z" fill="#191A16"/>
<path transform="translate(776,1164)" d="m0 0h2v2h2l-1 4-2 1-3-1-1-4z" fill="#1A1A17"/>
<path transform="translate(761,981)" d="m0 0 4 1v6l-5 1z" fill="#1A1A17"/>
<path transform="translate(891,1043)" d="m0 0h1v10l-2 4-3-1-1-5 1 2 3-2z" fill="#1A1A17"/>
<path transform="translate(925,679)" d="m0 0h2l1 6-1 2-4-1v-4z" fill="#1A1A17"/>
<path transform="translate(1102,1231)" d="m0 0 3 1 1 4h-6l-4-3z" fill="#191A10"/>
<path transform="translate(1136,1201)" d="m0 0 2 1-1 4-6 1-2-1v-3l4-1z" fill="#1A1A17"/>
<path transform="translate(741,1119)" d="m0 0 2 4-1 2h-3l1 3-4 1 2-7h2z" fill="#1A1A17"/>
<path transform="translate(1248,1041)" d="m0 0h2l-1 6-5 1v-4z" fill="#1A1A17"/>
<path transform="translate(745,1060)" d="m0 0h5l3 3-4 3-4-3-3-1z" fill="#1A1A17"/>
<path transform="translate(733,1047)" d="m0 0h1l1 7 5 2v1l-7-1-2-4z" fill="#1A1A17"/>
<path transform="translate(1221,1015)" d="m0 0h4v2l2 1-4 3-2-1-1 3-1-2z" fill="#154124"/>
<path transform="translate(855,730)" d="m0 0h7v2l-10 3-1-2h3z" fill="#191A10"/>
<path transform="translate(832,1212)" d="m0 0h4l1 5-2 1-4-2z" fill="#1A1A17"/>
<path transform="translate(891,1136)" d="m0 0 3 1-5 5-4-2v-2z" fill="#13532A"/>
<path transform="translate(862,946)" d="m0 0h7l5 1v1l-7 1-3 1-3-3z" fill="#1A1A17"/>
<path transform="translate(997,658)" d="m0 0 4 1 1 3-5 2h-3l2-5z" fill="#1A1A17"/>
<path transform="translate(842,1043)" d="m0 0 3 1v4h-2v5h-2v-9z" fill="#191A10"/>
<path transform="translate(1089,881)" d="m0 0 5 1v4l-4 1z" fill="#1A1A17"/>
<path transform="translate(1044,721)" d="m0 0 5 1-2 5h-5z" fill="#191A10"/>
</svg>
